#!OML:ASF I:\Actors\actors\Patient Classification 1\Patient 1\Session 1\Subject1.ASF
:FULLY-SPECIFIED
:DEGREES
252
root -0.529058 17.3838 9.502 9.08636 -35.1652 -15.4261
lowerback -7.20293 -3.78011 0.153951
upperback -15.3617 -5.04696 6.31451
thorax -12.0806 -2.20296 7.03925
lowerneck -16.6387 8.7049 10.533
upperneck 18.7907 10.9179 -6.88402
head 9.65934 5.12839 -2.58673
rclavicle -1.2921e-014 2.40529e-014
rhumerus 57.1699 -25.2131 -83.4264
rradius 148.995
rwrist 27.6396
rhand -34.1792 -38.4699
rfingers 7.12502
rthumb -7.35255 -428.322
lclavicle -1.2921e-014 2.40529e-014
lhumerus 114.504 -22.606 15.152
lradius 107.071
lwrist -36.0082
lhand -38.1515 -51.8977
lfingers 7.12502
lthumb -11.1854 -22.2159
rfemur -2.10747 21.5392 28.5588
rtibia 10.5061
rfoot -12.5491 8.61372
rtoes -3.20295
lfemur 23.3697 -26.7765 -22.9173
ltibia -0.729119
lfoot -43.9949 55.6651
ltoes 28.4161
253
root -0.578853 17.3935 9.48593 8.8523 -33.4897 -15.403
lowerback -6.69464 -3.47628 -0.301037
upperback -15.2029 -4.64088 5.69156
thorax -12.248 -1.97441 6.62037
lowerneck -17.3717 8.30982 9.77441
upperneck 18.8472 10.3425 -6.26055
head 9.67633 4.85724 -2.31813
rclavicle 2.36709e-014 7.1168e-014
rhumerus 59.2877 -24.0733 -84.9559
rradius 147.736
rwrist 27.3714
rhand -33.1738 -38.3878
rfingers 7.12502
rthumb -6.38201 -428.272
lclavicle 2.36709e-014 7.1168e-014
lhumerus 114.191 -22.4453 16.546
lradius 105.907
lwrist -34.6767
lhand -37.5699 -52.4872
lfingers 7.12502
lthumb -10.6244 -22.7758
rfemur -1.77246 20.7467 28.9798
rtibia 10.3904
rfoot -12.6841 7.7804
rtoes -4.16145
lfemur 23.4734 -27.8294 -22.4744
ltibia -0.792451
lfoot -43.073 55.5407
ltoes 27.3923
254
root -0.632879 17.404 9.46898 8.7014 -31.8368 -15.4101
lowerback -6.16358 -3.08566 -0.747635
upperback -15.0076 -4.12699 5.0489
thorax -12.3986 -1.69724 6.16651
lowerneck -18.1042 7.80771 9.19697
upperneck 18.6776 9.67013 -6.09044
head 9.64957 4.50624 -2.25187
rclavicle 3.81667e-014 -3.18055e-015
rhumerus 61.4765 -22.9862 -86.4207
rradius 146.135
rwrist 27.2329
rhand -31.7962 -38.0428
rfingers 7.12502
rthumb -5.0519 -427.963
lclavicle 3.81667e-014 -3.18055e-015
lhumerus 113.963 -22.3888 18.2291
lradius 104.529
lwrist -33.2265
lhand -37.5662 -53.1636
lfingers 7.12502
lthumb -10.6209 -23.452
rfemur -1.49382 20.0158 29.3813
rtibia 10.2166
rfoot -12.6856 7.05579
rtoes -4.23458
lfemur 23.6008 -29.0246 -22.0753
ltibia -0.939675
lfoot -42.5193 55.5568
ltoes 26.2919
255
root -0.690173 17.4156 9.44654 8.66978 -30.1196 -15.3686
lowerback -5.79631 -2.93471 -1.19986
upperback -14.9435 -3.93341 4.6706
thorax -12.5595 -1.56096 6.01477
lowerneck -18.2529 7.43884 8.1361
upperneck 18.6445 9.34213 -5.68929
head 9.56009 4.31966 -1.99298
rclavicle -4.49253e-014 -6.48038e-014
rhumerus 63.2129 -20.8846 -87.6884
rradius 144.055
rwrist 27.9604
rhand -30.3483 -37.838
rfingers 7.12502
rthumb -3.6538 -427.786
lclavicle -4.49253e-014 -6.48038e-014
lhumerus 112.775 -22.5161 20.2877
lradius 102.838
lwrist -31.9699
lhand -37.2335 -54.8601
lfingers 7.12502
lthumb -10.2999 -25.1323
rfemur -1.36711 19.3011 29.6763
rtibia 9.95323
rfoot -12.5606 6.4051
rtoes -3.51566
lfemur 23.4487 -30.2022 -21.524
ltibia -1.05446
lfoot -41.8698 55.5116
ltoes 25.0274
256
root -0.748569 17.4293 9.41896 8.67606 -28.3123 -15.2643
lowerback -5.26272 -2.39708 -1.6959
upperback -14.5821 -3.25732 3.71083
thorax -12.5389 -1.23089 5.20793
lowerneck -20.0125 6.7932 7.8812
upperneck 18.9134 8.31289 -5.42394
head 9.87043 3.81535 -1.97109
rclavicle -7.23576e-014 -2.3059e-014
rhumerus 65.8236 -20.3926 -89.6676
rradius 141.799
rwrist 26.8723
rhand -29.1847 -36.5693
rfingers 7.12502
rthumb -2.53007 -426.534
lclavicle -7.23576e-014 -2.3059e-014
lhumerus 113.076 -22.5155 21.9685
lradius 101.178
lwrist -30.4126
lhand -36.608 -56.1576
lfingers 7.12502
lthumb -9.69648 -26.4008
rfemur -1.31283 18.5941 29.8906
rtibia 9.6059
rfoot -12.4198 5.75217
rtoes -2.94129
lfemur 23.2527 -31.6111 -21.0531
ltibia -1.20833
lfoot -41.2616 55.5592
ltoes 23.7853
257
root -0.805875 17.4442 9.38711 8.73303 -26.4796 -15.1971
lowerback -4.66948 -2.123 -2.08819
upperback -14.3068 -2.91797 3.15491
thorax -12.6078 -1.04813 4.81295
lowerneck -20.6792 6.24169 6.69094
upperneck 18.5734 7.68184 -4.76984
head 9.74316 3.50192 -1.63699
rclavicle -2.46493e-014 -6.12257e-014
rhumerus 68.102 -18.7624 -91.5894
rradius 139.139
rwrist 24.8492
rhand -28.5818 -35.5571
rfingers 7.12502
rthumb -1.94781 -425.528
lclavicle -2.46493e-014 -6.12257e-014
lhumerus 112.331 -22.3905 24.2844
lradius 99.081
lwrist -28.632
lhand -36.738 -54.5278
lfingers 7.12502
lthumb -9.82191 -24.7769
rfemur -1.33242 17.9321 30.1134
rtibia 9.2596
rfoot -12.2522 5.20323
rtoes -2.03857
lfemur 23.1425 -33.2896 -20.6815
ltibia -1.44076
lfoot -40.8106 55.8937
ltoes 22.4175
258
root -0.861414 17.4622 9.34899 8.92227 -24.6369 -15.244
lowerback -4.00917 -1.82816 -2.30861
upperback -14.022 -2.55222 2.61977
thorax -12.7137 -0.870985 4.34332
lowerneck -21.3162 5.69686 5.4019
upperneck 18.306 7.02308 -3.70554
head 9.62709 3.22012 -1.14935
rclavicle 5.08889e-014 -3.65764e-014
rhumerus 69.9489 -16.8416 -93.0895
rradius 135.978
rwrist 23.6918
rhand -28.5316 -34.8161
rfingers 7.12502
rthumb -1.89932 -424.787
lclavicle 5.08889e-014 -3.65764e-014
lhumerus 111.67 -22.2144 26.7652
lradius 96.4296
lwrist -26.978
lhand -36.5975 -53.6517
lfingers 7.12502
lthumb -9.68629 -23.8944
rfemur -1.5237 17.3037 30.4232
rtibia 8.98555
rfoot -12.0223 4.70884
rtoes -1.08204
lfemur 22.8494 -34.9579 -20.0525
ltibia -1.68934
lfoot -40.5509 56.1958
ltoes 21.4148
259
root -0.914541 17.4853 9.30347 9.19213 -22.7461 -15.366
lowerback -3.25849 -1.46306 -2.3941
upperback -13.7042 -2.10151 1.98751
thorax -12.8469 -0.675393 3.68347
lowerneck -21.7963 5.11221 4.82592
upperneck 17.6356 6.24871 -3.31489
head 9.40424 2.86274 -1.03348
rclavicle 3.97569e-014 6.36111e-015
rhumerus 71.6588 -15.0916 -94.6684
rradius 132.452
rwrist 22.6709
rhand -28.3358 -34.111
rfingers 7.12502
rthumb -1.71028 -424.084
lclavicle 3.97569e-014 6.36111e-015
lhumerus 111.381 -22.2031 29.245
lradius 93.2096
lwrist -25.3177
lhand -36.8483 -53.8451
lfingers 7.12502
lthumb -9.92832 -24.0992
rfemur -1.83642 16.7715 30.8305
rtibia 8.7543
rfoot -11.7194 4.0319
rtoes -0.35653
lfemur 22.1821 -36.4547 -19.0159
ltibia -1.84262
lfoot -40.1808 56.2422
ltoes 20.9292
260
root -0.96319 17.5125 9.2488 9.46248 -20.8129 -15.4544
lowerback -2.31821 -1.17661 -2.37852
upperback -13.3609 -1.75346 1.44763
thorax -13.0532 -0.534463 3.07578
lowerneck -21.5592 4.62528 5.12506
upperneck 15.8405 5.64601 -4.35429
head 8.75842 2.49496 -1.53943
rclavicle -3.49861e-014 -7.95139e-015
rhumerus 73.1303 -13.005 -96.2059
rradius 128.381
rwrist 22.0634
rhand -27.866 -33.0131
rfingers 7.12502
rthumb -1.25648 -422.989
lclavicle -3.49861e-014 -7.95139e-015
lhumerus 110.938 -22.1577 31.9344
lradius 89.4251
lwrist -23.725
lhand -37.0749 -54.4808
lfingers 7.12502
lthumb -10.1469 -24.7455
rfemur -2.23746 16.2896 31.2145
rtibia 8.54329
rfoot -11.3815 3.17058
rtoes -0.234623
lfemur 21.1342 -37.7918 -17.7276
ltibia -1.84048
lfoot -39.2313 56.2188
ltoes 20.1789
